<?xml version="1.0" encoding="utf-8"?><svg viewBox="0 0 60 60" xmlns="http://www.w3.org/2000/svg" xmlns:xlink="http://www.w3.org/1999/xlink"><style>:root>svg{display:none}:root>svg:target{display:block}</style><svg viewBox="0 0 12 12" id="back" xmlns="http://www.w3.org/2000/svg"><path d="M3.756 5.52L10.959.571C11.531.188 12 .469 12 1.196v9.609c0 .725-.469 1.006-1.041.625L3.756 6.479s-.279-.199-.279-.478c0-.28.279-.481.279-.481zM2 0H1C.447 0 0 .048 0 .6v10.8c0 .552.447.6 1 .6h1c.553 0 1-.048 1-.6V.6C3 .048 2.553 0 2 0z" fill="inherit"/></svg><svg fill="none" viewBox="0 0 28 28" id="inst" xmlns="http://www.w3.org/2000/svg"><path fill-rule="evenodd" clip-rule="evenodd" d="M8.008.082C9.461.015 9.925 0 13.626 0c3.701 0 4.165.016 5.616.082 1.452.065 2.443.297 3.31.633.908.343 1.732.88 2.413 1.573a6.655 6.655 0 011.57 2.412c.338.867.568 1.858.635 3.307.067 1.456.082 1.919.082 5.619 0 3.701-.016 4.165-.082 5.618-.066 1.449-.297 2.44-.634 3.307a6.684 6.684 0 01-1.57 2.414 6.681 6.681 0 01-2.414 1.57c-.867.338-1.858.568-3.307.635-1.454.067-1.918.082-5.619.082-3.701 0-4.165-.016-5.618-.082-1.449-.066-2.44-.297-3.307-.634a6.685 6.685 0 01-2.414-1.57 6.678 6.678 0 01-1.572-2.414c-.336-.867-.566-1.858-.633-3.307C.015 17.789 0 17.326 0 13.626 0 9.925.016 9.461.082 8.01.147 6.558.379 5.567.715 4.7c.343-.91.88-1.733 1.573-2.413A6.68 6.68 0 014.7.715C5.567.379 6.558.149 8.007.082h.001zm11.124 2.452c-1.437-.065-1.868-.079-5.506-.079s-4.07.014-5.506.08c-1.33.06-2.05.282-2.53.469a4.231 4.231 0 00-1.568 1.018c-.452.44-.8.975-1.018 1.567-.187.48-.409 1.202-.47 2.53-.065 1.438-.079 1.869-.079 5.507s.014 4.07.08 5.506c.06 1.33.282 2.05.469 2.53a4.23 4.23 0 001.018 1.568c.44.452.976.8 1.567 1.018.48.187 1.202.409 2.53.47 1.438.065 1.868.079 5.507.079 3.64 0 4.07-.014 5.506-.08 1.33-.06 2.05-.282 2.53-.469a4.23 4.23 0 001.568-1.018c.452-.44.8-.976 1.018-1.567.187-.48.409-1.202.47-2.53.065-1.438.079-1.869.079-5.507s-.014-4.07-.08-5.506c-.06-1.33-.282-2.05-.469-2.53a4.23 4.23 0 00-1.018-1.568c-.44-.452-.976-.8-1.567-1.018-.48-.187-1.202-.409-2.53-.47zm-7.247 15.292a4.545 4.545 0 103.272-8.48 4.546 4.546 0 00-3.271 8.48zM8.675 8.675a7.004 7.004 0 119.905 9.905 7.004 7.004 0 01-9.905-9.905zm13.51-1.009a1.658 1.658 0 00-.515-2.74 1.656 1.656 0 10.514 2.74z" fill="#000"/></svg><svg viewBox="0 0 12 12" id="next" xmlns="http://www.w3.org/2000/svg"><path d="M8.244 5.52L1.041.571C.469.188 0 .469 0 1.196v9.609c0 .725.469 1.006 1.041.625l7.203-4.951s.279-.199.279-.478c0-.28-.279-.481-.279-.481zM10 0h1c.553 0 1 .048 1 .6v10.8c0 .552-.447.6-1 .6h-1c-.553 0-1-.048-1-.6V.6c0-.552.447-.6 1-.6z" fill="inherit"/></svg><svg fill="none" viewBox="0 0 60 60" id="play" xmlns="http://www.w3.org/2000/svg"><circle cx="30" cy="30" r="29.231" stroke="#fff" stroke-width="1.538"/><path d="M42.849 28.258c.55.38.892.617 1.107.817a.838.838 0 01.153.173.838.838 0 01-.15.177c-.21.205-.545.45-1.087.842L26.03 42.465c-.715.518-1.181.853-1.534 1.037-.15.079-.24.107-.286.117a1.218 1.218 0 01-.072-.3c-.058-.394-.06-.968-.06-1.85V17.654c0-.862.002-1.42.058-1.804.025-.165.053-.251.071-.293.046.008.132.034.282.108.348.17.808.486 1.518.976L42.85 28.258zm1.269 1.01c-.001 0-.003-.004-.004-.01.004.007.004.01.004.01zm-.004-.03c0-.006.003-.01.003-.01l-.003.01zM24.166 43.622h.014-.014zm.057.023c.006.005.009.01.009.01s-.004-.002-.009-.01zm.005-28.122c0 .001-.003.005-.009.01.005-.008.008-.01.009-.01zm-.049.032c-.008.002-.013.001-.013 0h.013z" stroke="#fff" stroke-width="1.538"/></svg><svg fill="none" viewBox="0 0 28 26" id="tg" xmlns="http://www.w3.org/2000/svg"><path d="M25.28.819a3.118 3.118 0 00-.978.234h-.004c-.299.118-1.72.716-3.88 1.622L12.68 5.934c-5.554 2.338-11.013 4.64-11.013 4.64l.065-.025s-.376.124-.77.393a2.128 2.128 0 00-.614.595 1.742 1.742 0 00-.29 1.163c.094.757.585 1.211.937 1.462.357.253.696.372.696.372H1.7l5.12 1.725c.229.737 1.56 5.11 1.879 6.118.189.602.372.978.602 1.265.11.147.24.27.397.368.081.048.168.085.258.111l-.052-.012c.015.004.028.017.04.02.041.012.07.017.123.025.81.245 1.461-.258 1.461-.258l.037-.03 3.023-2.751L19.654 25l.115.05c1.056.463 2.125.205 2.69-.25.57-.458.79-1.044.79-1.044l.037-.095 3.915-20.054c.111-.495.14-.959.017-1.408a1.894 1.894 0 00-.82-1.098A1.963 1.963 0 0025.28.819zm-.106 2.15c-.004.065.009.058-.02.185v.011l-3.879 19.846c-.016.029-.045.09-.122.152-.082.065-.147.106-.488-.03l-6.196-4.75-3.742 3.412.786-5.022 10.123-9.435c.417-.388.278-.47.278-.47.03-.476-.63-.14-.63-.14L8.519 14.638l-.005-.021-6.118-2.06v-.004l-.016-.004a.258.258 0 00.032-.012l.033-.017.033-.012 11.016-4.64c2.78-1.17 5.582-2.35 7.736-3.26a843.022 843.022 0 013.837-1.604c.086-.034.046-.034.107-.034z" fill="#000"/></svg><svg fill="none" viewBox="0 0 33 24" id="yt" xmlns="http://www.w3.org/2000/svg"><path d="M32.046 12.154c0-.078 0-.167-.004-.27-.003-.287-.01-.61-.017-.954a53.405 53.405 0 00-.157-2.906c-.106-1.281-.262-2.35-.475-3.151a4.95 4.95 0 00-3.488-3.495c-1.004-.27-2.97-.437-5.738-.54-1.316-.05-2.725-.081-4.134-.1-.493-.006-.95-.01-1.363-.013h-1.043c-.411.003-.87.007-1.362.014-1.409.018-2.818.05-4.134.1-2.768.106-4.737.272-5.738.539A4.945 4.945 0 00.905 4.873c-.217.802-.37 1.87-.476 3.15-.078.93-.127 1.917-.156 2.907-.01.344-.014.667-.017.954 0 .103-.004.192-.004.27v.199c0 .078 0 .167.004.27.003.287.01.61.017.954.029.99.078 1.976.156 2.906.107 1.281.263 2.35.476 3.151a4.945 4.945 0 003.488 3.495c1 .27 2.97.437 5.738.54 1.316.05 2.725.081 4.134.1.493.006.95.01 1.362.013h1.043c.412-.003.87-.007 1.363-.014a167.06 167.06 0 004.134-.1c2.768-.106 4.737-.273 5.738-.539a4.939 4.939 0 003.488-3.495c.216-.802.369-1.87.475-3.15.079-.93.128-1.917.157-2.907.01-.344.014-.667.017-.954 0-.103.004-.192.004-.27v-.199zm-2.555.185c0 .074 0 .156-.004.252-.003.276-.01.582-.017.912a47.954 47.954 0 01-.15 2.764c-.095 1.142-.23 2.08-.397 2.707a2.388 2.388 0 01-1.682 1.686c-.745.198-2.622.358-5.173.454a161.384 161.384 0 01-5.412.11h-1.014l-1.342-.01c-1.387-.018-2.775-.05-4.07-.1-2.551-.1-4.432-.256-5.173-.454a2.394 2.394 0 01-1.682-1.686c-.167-.628-.302-1.565-.398-2.707-.074-.877-.12-1.82-.149-2.764-.01-.33-.014-.64-.018-.912 0-.096-.003-.181-.003-.252v-.17c0-.075 0-.157.003-.253.004-.276.011-.582.018-.912.025-.944.075-1.887.15-2.764.095-1.142.23-2.08.397-2.707.22-.82.865-1.47 1.682-1.686.745-.198 2.622-.358 5.173-.454a161.238 161.238 0 015.412-.11h1.014l1.342.01c1.387.018 2.774.05 4.07.1 2.551.1 4.432.256 5.173.454.816.22 1.462.866 1.682 1.686.167.628.302 1.565.398 2.707.074.877.12 1.82.149 2.764.01.33.014.64.017.912 0 .096.004.181.004.252v.17zm-16.5 4.67l8.232-4.791-8.232-4.72v9.51z" fill="#000"/></svg></svg>